<svg width="512" height="512" viewBox="0 0 512 512" fill="none" xmlns="http://www.w3.org/2000/svg">
<rect width="512" height="512" rx="96" fill="#F58021"/>
<path fill-rule="evenodd" clip-rule="evenodd" d="M168.5 201.478C162.128 202.031 155.924 203.87 149.975 206.967C145.728 209.178 136.48 217.816 109.981 244.324L75.511 278.805H92.388H109.264L134.297 253.745C148.065 239.963 160.718 227.925 162.415 226.995C165.267 225.433 176.862 225.285 315.933 225.046L466.367 224.787L477.63 213.409C483.824 207.151 488.627 201.766 488.303 201.442C487.691 200.829 175.554 200.865 168.5 201.478ZM183.903 233.555C183.327 235.067 182.01 238.78 180.976 241.805C171.2 270.4 168.484 275.805 163.889 275.805C162.457 275.805 162 276.53 162 278.805V281.805H174.5H187V278.862C187 276.116 186.717 275.9 182.75 275.612C178.134 275.279 177.734 274.266 179.932 268.485C180.925 265.871 181.158 265.805 189.377 265.805H197.804L198.902 268.954C200.913 274.722 200.454 275.805 196 275.805C192.222 275.805 192 275.972 192 278.805V281.805H242H292V278.865C292 276.196 291.658 275.897 288.289 275.615C285.31 275.366 284.443 274.812 283.889 272.805C282.847 269.028 282.848 241.242 283.89 242.355C284.379 242.878 287.577 251.992 290.996 262.609L297.212 281.913L300.641 281.609L304.07 281.305L310.988 260.805L317.907 240.305L317.704 257.805L317.5 275.305L313.75 275.615C310.337 275.898 310 276.19 310 278.865V281.805H323.5H337V278.865C337 276.19 336.663 275.898 333.25 275.615L329.5 275.305V256.305V237.305L333.25 236.995C336.663 236.712 337 236.42 337 233.745V230.805H325.067C313.556 230.805 313.111 230.884 312.471 233.055C310.932 238.267 302.645 261.364 302.076 262.027C301.735 262.424 299.236 255.562 296.523 246.777L291.589 230.805H279.295H267V233.745C267 236.42 267.337 236.712 270.75 236.995L274.5 237.305V256.305V275.305H259H243.5L243.228 256.055C242.927 234.695 242.759 235.173 249.46 238.353C253.195 240.125 255 243.384 255 248.352C255 251.522 255.246 251.805 258 251.805H261V241.305V230.805H237.5H214V241.305V251.805H217C219.884 251.805 220 251.633 220 247.35C220 243.911 220.58 242.316 222.545 240.35C223.945 238.95 225.633 237.799 226.295 237.791C226.958 237.784 228.522 237.504 229.772 237.169L232.044 236.56L231.772 255.933L231.5 275.305L223.642 275.599C218.06 275.808 215.145 275.475 213.579 274.449C211.999 273.414 209.316 267.381 204.109 253.155C200.113 242.237 196.668 232.743 196.453 232.055C196.202 231.252 194.077 230.805 190.507 230.805C185.366 230.805 184.872 231.011 183.903 233.555ZM377.5 259.714C355.993 281.128 350.809 285.791 347.5 286.698C344.684 287.47 299.547 287.795 194.984 287.799L46.467 287.805L35.234 299.071C29.055 305.267 24 310.667 24 311.071C24 312.214 341.474 311.961 348.5 310.812C361.709 308.652 364.362 306.582 401.75 269.278C420.587 250.483 436 234.813 436 234.455C436 234.098 428.688 233.81 419.75 233.816L403.5 233.827L377.5 259.714ZM192.25 250.597C193.762 254.88 195 258.704 195 259.095C195 259.485 192.354 259.805 189.119 259.805H183.238L185.869 251.321C187.316 246.655 188.725 242.831 189 242.824C189.275 242.816 190.738 246.314 192.25 250.597Z" fill="white"/>
</svg>
